<svg height="512pt" viewBox="-53 0 512 512" width="512pt" xmlns="http://www.w3.org/2000/svg"><path d="m326.339844 512h44.140625c20.046875 0 36.355469-16.308594 36.355469-36.355469v-439.289062c0-20.046875-16.308594-36.355469-36.355469-36.355469h-334.125c-20.046875 0-36.355469 16.308594-36.355469 36.355469v439.285156c0 20.046875 16.308594 36.359375 36.355469 36.359375h259.984375c4.140625 0 7.5-3.359375 7.5-7.5 0-4.144531-3.359375-7.5-7.5-7.5h-259.984375c-11.773438 0-21.355469-9.582031-21.355469-21.359375v-439.285156c0-11.773438 9.582031-21.355469 21.355469-21.355469h334.121093c11.777344 0 21.359376 9.582031 21.359376 21.355469v439.285156c0 11.777344-9.582032 21.359375-21.359376 21.359375h-44.136718c-4.144532 0-7.5 3.355469-7.5 7.5 0 4.140625 3.355468 7.5 7.5 7.5zm0 0"/><path d="m203.417969 277.332031c1.195312 0 2.390625-.285156 3.480469-.855469 48.140624-25.234374 84.375-52.816406 107.691406-81.980468 20.332031-25.433594 30.351562-51.820313 28.972656-76.3125-1.628906-28.945313-19.648438-53.527344-47.03125-64.160156-30.414062-11.808594-65.511719-4.257813-93.109375 19.625-14.855469-12.898438-31.867187-21.15625-49.566406-24.003907-18.199219-2.929687-36.765625.054688-52.277344 8.402344-3.644531 1.960937-5.011719 6.511719-3.050781 10.15625 1.964844 3.648437 6.511718 5.015625 10.160156 3.050781 21.160156-11.386718 57.292969-13.515625 89.488281 17.949219 2.914063 2.847656 7.566407 2.847656 10.484375 0 24.03125-23.484375 55.621094-31.609375 82.441406-21.195313 22.160157 8.601563 36.171876 27.675782 37.484376 51.019532 1.25 22.191406-8.554688 80.167968-125.167969 142.320312-69.578125-37.117187-113.261719-80.207031-123.171875-121.585937-4.585938-19.144531-1.683594-36.757813 8.398437-50.941407 2.398438-3.378906 1.609375-8.058593-1.769531-10.460937-3.375-2.398437-8.058594-1.605469-10.457031 1.769531-12.484375 17.5625-16.304688 39.984375-10.761719 63.128906 7.851562 32.78125 37.523438 82.503907 134.277344 133.21875 1.09375.570313 2.289062.855469 3.484375.855469zm0 0"/><path d="m148.210938 158.890625v-11.347656c0-4.144531-3.355469-7.5-7.5-7.5-4.140626 0-7.5 3.355469-7.5 7.5v11.347656c0 4.140625 3.359374 7.5 7.5 7.5 4.144531 0 7.5-3.359375 7.5-7.5zm0 0"/><path d="m273.621094 158.890625v-11.347656c0-4.144531-3.355469-7.5-7.5-7.5-4.140625 0-7.5 3.355469-7.5 7.5v11.347656c0 4.140625 3.359375 7.5 7.5 7.5 4.144531 0 7.5-3.359375 7.5-7.5zm0 0"/><path d="m203.417969 172.449219c8.195312 0 15.894531-3.429688 21.125-9.414063 2.726562-3.117187 2.40625-7.855468-.710938-10.582031-3.121093-2.726563-7.859375-2.40625-10.585937.710937-2.378906 2.722657-5.960938 4.285157-9.828125 4.285157-3.867188 0-7.449219-1.5625-9.828125-4.285157-2.726563-3.117187-7.46875-3.4375-10.585938-.710937-3.117187 2.726563-3.4375 7.464844-.710937 10.582031 5.230469 5.984375 12.929687 9.414063 21.125 9.414063zm0 0"/><path d="m112.417969 302.832031h-41.769531c-4.144532 0-7.5 3.359375-7.5 7.5 0 4.144531 3.355468 7.5 7.5 7.5h41.769531c4.140625 0 7.5-3.355469 7.5-7.5 0-4.140625-3.359375-7.5-7.5-7.5zm0 0"/><path d="m336.1875 302.832031h-170.019531c-4.140625 0-7.5 3.359375-7.5 7.5 0 4.144531 3.359375 7.5 7.5 7.5h170.023437c4.140625 0 7.5-3.355469 7.5-7.5 0-4.140625-3.359375-7.5-7.503906-7.5zm0 0"/><path d="m112.417969 363.5h-41.769531c-4.144532 0-7.5 3.359375-7.5 7.5s3.355468 7.5 7.5 7.5h41.769531c4.140625 0 7.5-3.359375 7.5-7.5s-3.359375-7.5-7.5-7.5zm0 0"/><path d="m336.1875 363.5h-170.019531c-4.140625 0-7.5 3.359375-7.5 7.5s3.359375 7.5 7.5 7.5h170.023437c4.140625 0 7.5-3.359375 7.5-7.5s-3.359375-7.5-7.503906-7.5zm0 0"/><path d="m112.417969 424.167969h-41.769531c-4.144532 0-7.5 3.355469-7.5 7.5 0 4.140625 3.355468 7.5 7.5 7.5h41.769531c4.140625 0 7.5-3.359375 7.5-7.5 0-4.144531-3.359375-7.5-7.5-7.5zm0 0"/><path d="m166.167969 439.167969h170.023437c4.140625 0 7.5-3.359375 7.5-7.5 0-4.144531-3.359375-7.5-7.5-7.5h-170.023437c-4.140625 0-7.5 3.355469-7.5 7.5 0 4.140625 3.359375 7.5 7.5 7.5zm0 0"/></svg>